<?xml version="1.0" encoding="utf-8"?>
<!-- Generator: Adobe Illustrator 19.2.1, SVG Export Plug-In . SVG Version: 6.00 Build 0)  -->
<svg version="1.1" id="Layer_1" xmlns="http://www.w3.org/2000/svg" xmlns:xlink="http://www.w3.org/1999/xlink" x="0px" y="0px"
	 width="96px" height="96px" viewBox="0 0 96 96" style="enable-background:new 0 0 96 96;" xml:space="preserve">
<path d="M0,0v96h96V0H0z M84.6,68c-0.4,1.1-1.7,3.6-2.1,3.7c-0.3,0.1-1.7,0.2-1.7,0.2h-5c0,0-1-0.8,0-1.6c1-0.7,2.1-1.2,2.1-1.8
	S77.3,67,76.5,67c-0.7,0-2.2-0.7-2.6-1.2c-0.4-0.5-1.7-1.2-1.7-1.2S71.9,65.8,72,67s0,2.6-0.1,2.9c-0.1,0.3-0.4,0.7-0.4,0.7
	S65.6,71,63.7,71c-1.8,0-3.7-0.1-4.5-0.3c-0.7-0.2-0.9-0.2-0.9-0.5c0-0.2,0.1-1.7,2.9-2.2c2.8-0.5,3.1-1,3-1.8
	c0-0.8-1.2-1.6-1.9-2.1c-0.7-0.6-1.7-0.4-2.4-2.9c-0.7-2.5-0.7-4.4-1.2-4.6c-0.5-0.2-2.1-0.1-3.1-0.6c-1-0.5-1.6-1.4-2.4-1.2
	c-0.8,0.2-1.1,1-1.3,1.9s-1.7,5-1.9,6.3c-0.2,1.2-0.9,1.8-1.2,2.6s-0.9,1.6-1,2.8c-0.1,1.2-0.2,2.6-0.3,2.7
	c-0.2,0.2-0.7,0.7-0.7,0.7s-5.9,0-6.3,0.1c-0.3,0.1-1.4,0.2-2,0.2s-2.6-0.5-2.8-0.6c-0.2-0.2-0.7-0.7-1.7-0.7c-1,0-4.4-0.2-4.6-0.5
	c-0.2-0.2,0.2-1.5,0.9-1.9c0.7-0.4,2.1-1,3-1s1.2-0.1,1.6-0.2c0.4-0.2,0.2,0.2,0.3-0.2c0,0-0.6-3.8-1-7.2c-0.4-3.4,0-6.4-0.6-7.2
	c-0.6-0.7-1.9-0.8-2.5-1.4s-0.1-3-1.7-3.7c-1.6-0.7-2.7-0.7-4.5-0.8c-1.7-0.2-2.2-0.2-3.1-0.5c-0.8-0.4-1.6-1.4-2.2-1.4
	c-0.7,0-3,0.3-4.9-0.2c-1.9-0.5-1.2-1.2-2.1-1.2c-0.8,0-2.2-0.2-2.7-0.2c-0.5,0-1.5-0.8-1.5-1.1c-0.1-0.2,0.7-0.2,0.6-0.6
	c-0.1-0.4-1.1-0.2-1.4-0.5s-0.4-1.3-0.5-1.4c-0.1-0.2-0.2-0.5-0.4-0.6c-0.2-0.1-0.6-0.7-0.4-1.1c0.2-0.4,0.7-0.7,1.4-1
	c0.7-0.3,2.3-1.2,2.7-1.4c0.4-0.2,1.2-0.7,1.2-0.8c0.2-0.2,0-1,0.2-1.2c0.2-0.2,1-1,1.5-1.2c0.5-0.2,1.7-0.7,2.1-0.9s1.6-0.7,1.7-1
	s0.3-1.3,0.5-1.6c0.2-0.3,1-1.2,1.5-1.2c0.5,0,1.2,0,1.7,0.6c0.5,0.6,1.3,0.5,1.8,0.4c0.5,0,0.8-0.2,1.4-0.2s1.1,0.2,1.7,0.2
	c0.5-0.1,1.9-0.7,3.2-0.7c1.3,0,2.6,0.1,3.6,0c1-0.1,1.5-0.2,2.1-0.6c0.6-0.3,1.7-1.3,3.2-2.1c1.5-0.7,3-0.9,4-0.9
	c1.1-0.1,3.4,0.3,4.3,0.7c0.9,0.4,2.8,1.6,4.5,1.7c1.7,0.2,4.7,0.2,5.5,0.1c0.7-0.2,3.6-0.7,4.7-0.7c1.1-0.1,6.3-0.2,8.2,0.2
	c2,0.5,4,1.2,4.8,1.6c0.7,0.4,2.7,1.7,3.5,2.6c0.7,1.1,1.7,2.2,2.4,3.1s1.7,2,2.4,3.3c0.7,1.3,1.6,2.7,1.7,4.4
	c0.2,1.7,0.1,2.9-0.1,3.5c-0.2,0.6-0.6,1.4-0.6,3c0,1.6,0,2.6-0.2,3.4c-0.2,0.8-0.3,1.2-0.3,1.7c0,0.4-0.4,1.1-0.6,1.7
	c-0.2,0.7-1,2.6-0.7,3.7s0.7,1.2,1,1.9c0.3,0.6,0.9,1.7,1.6,2.4c0.7,0.6,1.6,1,1.5,2.2C85.6,65.6,85,67,84.6,68z"/>
</svg>
